<?xml version="1.0" encoding="UTF-8"?>
<!DOCTYPE svg PUBLIC "-//W3C//DTD SVG 1.1//EN" "http://www.w3.org/Graphics/SVG/1.1/DTD/svg11.dtd">
<svg version="1.1" xmlns="http://www.w3.org/2000/svg" xmlns:xlink="http://www.w3.org/1999/xlink" x="0" y="0" width="303.661" height="248.85" viewBox="0, 0, 303.661, 248.85">
  <defs>
    <radialGradient id="Gradient_1" gradientUnits="userSpaceOnUse" cx="449.655" cy="30.248" r="12.673">
      <stop offset="0" stop-color="#926906"/>
      <stop offset="0.463" stop-color="#D2AC47"/>
      <stop offset="0.771" stop-color="#EDC967"/>
      <stop offset="0.973" stop-color="#926A05"/>
    </radialGradient>
    <radialGradient id="Gradient_2" gradientUnits="userSpaceOnUse" cx="468.335" cy="38.63" r="4.321">
      <stop offset="0" stop-color="#926906"/>
      <stop offset="0.463" stop-color="#D2AC47"/>
      <stop offset="0.771" stop-color="#EDC967"/>
      <stop offset="0.973" stop-color="#926A05"/>
    </radialGradient>
    <radialGradient id="Gradient_3" gradientUnits="userSpaceOnUse" cx="477.311" cy="38.63" r="4.321">
      <stop offset="0" stop-color="#926906"/>
      <stop offset="0.463" stop-color="#D2AC47"/>
      <stop offset="0.771" stop-color="#EDC967"/>
      <stop offset="0.973" stop-color="#926A05"/>
    </radialGradient>
    <radialGradient id="Gradient_4" gradientUnits="userSpaceOnUse" cx="487.442" cy="34.469" r="6.427">
      <stop offset="0" stop-color="#926906"/>
      <stop offset="0.463" stop-color="#D2AC47"/>
      <stop offset="0.771" stop-color="#EDC967"/>
      <stop offset="0.973" stop-color="#926A05"/>
    </radialGradient>
    <radialGradient id="Gradient_5" gradientUnits="userSpaceOnUse" cx="515.997" cy="30.498" r="14.658">
      <stop offset="0" stop-color="#926906"/>
      <stop offset="0.463" stop-color="#D2AC47"/>
      <stop offset="0.771" stop-color="#EDC967"/>
      <stop offset="0.973" stop-color="#926A05"/>
    </radialGradient>
    <radialGradient id="Gradient_6" gradientUnits="userSpaceOnUse" cx="535.434" cy="38.696" r="4.91">
      <stop offset="0" stop-color="#926906"/>
      <stop offset="0.463" stop-color="#D2AC47"/>
      <stop offset="0.771" stop-color="#EDC967"/>
      <stop offset="0.973" stop-color="#926A05"/>
    </radialGradient>
    <radialGradient id="Gradient_7" gradientUnits="userSpaceOnUse" cx="546.695" cy="36.263" r="6.381">
      <stop offset="0" stop-color="#926906"/>
      <stop offset="0.463" stop-color="#D2AC47"/>
      <stop offset="0.771" stop-color="#EDC967"/>
      <stop offset="0.973" stop-color="#926A05"/>
    </radialGradient>
    <radialGradient id="Gradient_8" gradientUnits="userSpaceOnUse" cx="558.329" cy="38.63" r="5.345">
      <stop offset="0" stop-color="#926906"/>
      <stop offset="0.463" stop-color="#D2AC47"/>
      <stop offset="0.771" stop-color="#EDC967"/>
      <stop offset="0.973" stop-color="#926A05"/>
    </radialGradient>
    <radialGradient id="Gradient_9" gradientUnits="userSpaceOnUse" cx="567.642" cy="42.841" r="6.966">
      <stop offset="0" stop-color="#926906"/>
      <stop offset="0.463" stop-color="#D2AC47"/>
      <stop offset="0.771" stop-color="#EDC967"/>
      <stop offset="0.973" stop-color="#926A05"/>
    </radialGradient>
    <radialGradient id="Gradient_10" gradientUnits="userSpaceOnUse" cx="596.722" cy="30.756" r="13.386">
      <stop offset="0" stop-color="#926906"/>
      <stop offset="0.463" stop-color="#D2AC47"/>
      <stop offset="0.771" stop-color="#EDC967"/>
      <stop offset="0.973" stop-color="#926A05"/>
    </radialGradient>
    <radialGradient id="Gradient_11" gradientUnits="userSpaceOnUse" cx="612.06" cy="42.596" r="8.057">
      <stop offset="0" stop-color="#926906"/>
      <stop offset="0.463" stop-color="#D2AC47"/>
      <stop offset="0.771" stop-color="#EDC967"/>
      <stop offset="0.973" stop-color="#926A05"/>
    </radialGradient>
    <radialGradient id="Gradient_12" gradientUnits="userSpaceOnUse" cx="622.477" cy="42.596" r="8.057">
      <stop offset="0" stop-color="#926906"/>
      <stop offset="0.463" stop-color="#D2AC47"/>
      <stop offset="0.771" stop-color="#EDC967"/>
      <stop offset="0.973" stop-color="#926A05"/>
    </radialGradient>
    <radialGradient id="Gradient_13" gradientUnits="userSpaceOnUse" cx="376.509" cy="-64.457" r="72.496">
      <stop offset="0" stop-color="#926906"/>
      <stop offset="0.463" stop-color="#D2AC47"/>
      <stop offset="0.771" stop-color="#EDC967"/>
      <stop offset="0.973" stop-color="#926A05"/>
    </radialGradient>
    <radialGradient id="Gradient_14" gradientUnits="userSpaceOnUse" cx="376.509" cy="-64.457" r="72.496">
      <stop offset="0" stop-color="#926906"/>
      <stop offset="0.463" stop-color="#D2AC47"/>
      <stop offset="0.771" stop-color="#EDC967"/>
      <stop offset="0.973" stop-color="#926A05"/>
    </radialGradient>
    <radialGradient id="Gradient_15" gradientUnits="userSpaceOnUse" cx="376.509" cy="-64.457" r="72.496">
      <stop offset="0" stop-color="#926906"/>
      <stop offset="0.463" stop-color="#D2AC47"/>
      <stop offset="0.771" stop-color="#EDC967"/>
      <stop offset="0.973" stop-color="#926A05"/>
    </radialGradient>
    <radialGradient id="Gradient_16" gradientUnits="userSpaceOnUse" cx="376.509" cy="-64.457" r="72.496">
      <stop offset="0" stop-color="#926906"/>
      <stop offset="0.463" stop-color="#D2AC47"/>
      <stop offset="0.771" stop-color="#EDC967"/>
      <stop offset="0.973" stop-color="#926A05"/>
    </radialGradient>
    <radialGradient id="Gradient_17" gradientUnits="userSpaceOnUse" cx="376.509" cy="-64.457" r="72.496">
      <stop offset="0" stop-color="#926906"/>
      <stop offset="0.463" stop-color="#D2AC47"/>
      <stop offset="0.771" stop-color="#EDC967"/>
      <stop offset="0.973" stop-color="#926A05"/>
    </radialGradient>
    <radialGradient id="Gradient_18" gradientUnits="userSpaceOnUse" cx="376.509" cy="-64.457" r="72.496">
      <stop offset="0" stop-color="#926906"/>
      <stop offset="0.463" stop-color="#D2AC47"/>
      <stop offset="0.771" stop-color="#EDC967"/>
      <stop offset="0.973" stop-color="#926A05"/>
    </radialGradient>
    <radialGradient id="Gradient_19" gradientUnits="userSpaceOnUse" cx="376.509" cy="-64.457" r="72.496">
      <stop offset="0" stop-color="#926906"/>
      <stop offset="0.463" stop-color="#D2AC47"/>
      <stop offset="0.771" stop-color="#EDC967"/>
      <stop offset="0.973" stop-color="#926A05"/>
    </radialGradient>
    <radialGradient id="Gradient_20" gradientUnits="userSpaceOnUse" cx="376.509" cy="-64.457" r="72.496">
      <stop offset="0" stop-color="#926906"/>
      <stop offset="0.463" stop-color="#D2AC47"/>
      <stop offset="0.771" stop-color="#EDC967"/>
      <stop offset="0.973" stop-color="#926A05"/>
    </radialGradient>
    <radialGradient id="Gradient_21" gradientUnits="userSpaceOnUse" cx="376.509" cy="-64.457" r="72.496">
      <stop offset="0" stop-color="#926906"/>
      <stop offset="0.463" stop-color="#D2AC47"/>
      <stop offset="0.771" stop-color="#EDC967"/>
      <stop offset="0.973" stop-color="#926A05"/>
    </radialGradient>
    <radialGradient id="Gradient_22" gradientUnits="userSpaceOnUse" cx="376.509" cy="-64.457" r="72.496">
      <stop offset="0" stop-color="#926906"/>
      <stop offset="0.463" stop-color="#D2AC47"/>
      <stop offset="0.771" stop-color="#EDC967"/>
      <stop offset="0.973" stop-color="#926A05"/>
    </radialGradient>
    <radialGradient id="Gradient_23" gradientUnits="userSpaceOnUse" cx="376.509" cy="-64.457" r="72.496">
      <stop offset="0" stop-color="#926906"/>
      <stop offset="0.463" stop-color="#D2AC47"/>
      <stop offset="0.771" stop-color="#EDC967"/>
      <stop offset="0.973" stop-color="#926A05"/>
    </radialGradient>
    <radialGradient id="Gradient_24" gradientUnits="userSpaceOnUse" cx="376.509" cy="-64.457" r="72.496">
      <stop offset="0" stop-color="#926906"/>
      <stop offset="0.463" stop-color="#D2AC47"/>
      <stop offset="0.771" stop-color="#EDC967"/>
      <stop offset="0.973" stop-color="#926A05"/>
    </radialGradient>
    <radialGradient id="Gradient_25" gradientUnits="userSpaceOnUse" cx="152.953" cy="85.331" r="91.568" gradientTransform="matrix(1, 0.023, -0.023, 1, 0, 0)">
      <stop offset="0" stop-color="#926906"/>
      <stop offset="0.463" stop-color="#D2AC47"/>
      <stop offset="0.771" stop-color="#EDC967"/>
      <stop offset="0.973" stop-color="#926A05"/>
    </radialGradient>
    <radialGradient id="Gradient_26" gradientUnits="userSpaceOnUse" cx="152.953" cy="85.331" r="91.568" gradientTransform="matrix(1, 0.023, -0.023, 1, 0, 0)">
      <stop offset="0" stop-color="#926906"/>
      <stop offset="0.463" stop-color="#D2AC47"/>
      <stop offset="0.771" stop-color="#EDC967"/>
      <stop offset="0.973" stop-color="#926A05"/>
    </radialGradient>
    <radialGradient id="Gradient_27" gradientUnits="userSpaceOnUse" cx="152.953" cy="85.331" r="91.568" gradientTransform="matrix(1, 0.023, -0.023, 1, 0, 0)">
      <stop offset="0" stop-color="#926906"/>
      <stop offset="0.463" stop-color="#D2AC47"/>
      <stop offset="0.771" stop-color="#EDC967"/>
      <stop offset="0.973" stop-color="#926A05"/>
    </radialGradient>
    <radialGradient id="Gradient_28" gradientUnits="userSpaceOnUse" cx="152.953" cy="85.331" r="91.568" gradientTransform="matrix(1, 0.023, -0.023, 1, 0, 0)">
      <stop offset="0" stop-color="#926906"/>
      <stop offset="0.463" stop-color="#D2AC47"/>
      <stop offset="0.771" stop-color="#EDC967"/>
      <stop offset="0.973" stop-color="#926A05"/>
    </radialGradient>
    <radialGradient id="Gradient_29" gradientUnits="userSpaceOnUse" cx="152.953" cy="85.331" r="91.568" gradientTransform="matrix(1, 0.023, -0.023, 1, 0, 0)">
      <stop offset="0" stop-color="#926906"/>
      <stop offset="0.463" stop-color="#D2AC47"/>
      <stop offset="0.771" stop-color="#EDC967"/>
      <stop offset="0.973" stop-color="#926A05"/>
    </radialGradient>
    <radialGradient id="Gradient_30" gradientUnits="userSpaceOnUse" cx="152.953" cy="85.331" r="91.568" gradientTransform="matrix(1, 0.023, -0.023, 1, 0, 0)">
      <stop offset="0" stop-color="#926906"/>
      <stop offset="0.463" stop-color="#D2AC47"/>
      <stop offset="0.771" stop-color="#EDC967"/>
      <stop offset="0.973" stop-color="#926A05"/>
    </radialGradient>
    <radialGradient id="Gradient_31" gradientUnits="userSpaceOnUse" cx="152.953" cy="85.331" r="91.568" gradientTransform="matrix(1, 0.023, -0.023, 1, 0, 0)">
      <stop offset="0" stop-color="#926906"/>
      <stop offset="0.463" stop-color="#D2AC47"/>
      <stop offset="0.771" stop-color="#EDC967"/>
      <stop offset="0.973" stop-color="#926A05"/>
    </radialGradient>
    <radialGradient id="Gradient_32" gradientUnits="userSpaceOnUse" cx="152.953" cy="85.331" r="91.568" gradientTransform="matrix(1, 0.023, -0.023, 1, 0, 0)">
      <stop offset="0" stop-color="#926906"/>
      <stop offset="0.463" stop-color="#D2AC47"/>
      <stop offset="0.771" stop-color="#EDC967"/>
      <stop offset="0.973" stop-color="#926A05"/>
    </radialGradient>
    <radialGradient id="Gradient_33" gradientUnits="userSpaceOnUse" cx="152.953" cy="85.331" r="91.568" gradientTransform="matrix(1, 0.023, -0.023, 1, 0, 0)">
      <stop offset="0" stop-color="#926906"/>
      <stop offset="0.463" stop-color="#D2AC47"/>
      <stop offset="0.771" stop-color="#EDC967"/>
      <stop offset="0.973" stop-color="#926A05"/>
    </radialGradient>
    <radialGradient id="Gradient_34" gradientUnits="userSpaceOnUse" cx="152.953" cy="85.331" r="91.568" gradientTransform="matrix(1, 0.023, -0.023, 1, 0, 0)">
      <stop offset="0" stop-color="#926906"/>
      <stop offset="0.463" stop-color="#D2AC47"/>
      <stop offset="0.771" stop-color="#EDC967"/>
      <stop offset="0.973" stop-color="#926A05"/>
    </radialGradient>
    <radialGradient id="Gradient_35" gradientUnits="userSpaceOnUse" cx="152.953" cy="85.331" r="91.568" gradientTransform="matrix(1, 0.023, -0.023, 1, 0, 0)">
      <stop offset="0" stop-color="#926906"/>
      <stop offset="0.463" stop-color="#D2AC47"/>
      <stop offset="0.771" stop-color="#EDC967"/>
      <stop offset="0.973" stop-color="#926A05"/>
    </radialGradient>
    <radialGradient id="Gradient_36" gradientUnits="userSpaceOnUse" cx="152.953" cy="85.331" r="91.568" gradientTransform="matrix(1, 0.023, -0.023, 1, 0, 0)">
      <stop offset="0" stop-color="#926906"/>
      <stop offset="0.463" stop-color="#D2AC47"/>
      <stop offset="0.771" stop-color="#EDC967"/>
      <stop offset="0.973" stop-color="#926A05"/>
    </radialGradient>
    <radialGradient id="Gradient_37" gradientUnits="userSpaceOnUse" cx="152.957" cy="152.292" r="91.427" gradientTransform="matrix(1, 0.023, -0.023, 1, 0, 0)">
      <stop offset="0" stop-color="#926906"/>
      <stop offset="0.463" stop-color="#D2AC47"/>
      <stop offset="0.771" stop-color="#EDC967"/>
      <stop offset="0.973" stop-color="#926A05"/>
    </radialGradient>
    <radialGradient id="Gradient_38" gradientUnits="userSpaceOnUse" cx="152.957" cy="152.292" r="91.427" gradientTransform="matrix(1, 0.023, -0.023, 1, 0, 0)">
      <stop offset="0" stop-color="#926906"/>
      <stop offset="0.463" stop-color="#D2AC47"/>
      <stop offset="0.771" stop-color="#EDC967"/>
      <stop offset="0.973" stop-color="#926A05"/>
    </radialGradient>
    <radialGradient id="Gradient_39" gradientUnits="userSpaceOnUse" cx="152.957" cy="152.292" r="91.427" gradientTransform="matrix(1, 0.023, -0.023, 1, 0, 0)">
      <stop offset="0" stop-color="#926906"/>
      <stop offset="0.463" stop-color="#D2AC47"/>
      <stop offset="0.771" stop-color="#EDC967"/>
      <stop offset="0.973" stop-color="#926A05"/>
    </radialGradient>
    <radialGradient id="Gradient_40" gradientUnits="userSpaceOnUse" cx="152.957" cy="152.292" r="91.427" gradientTransform="matrix(1, 0.023, -0.023, 1, 0, 0)">
      <stop offset="0" stop-color="#926906"/>
      <stop offset="0.463" stop-color="#D2AC47"/>
      <stop offset="0.771" stop-color="#EDC967"/>
      <stop offset="0.973" stop-color="#926A05"/>
    </radialGradient>
    <radialGradient id="Gradient_41" gradientUnits="userSpaceOnUse" cx="152.957" cy="152.292" r="91.427" gradientTransform="matrix(1, 0.023, -0.023, 1, 0, 0)">
      <stop offset="0" stop-color="#926906"/>
      <stop offset="0.463" stop-color="#D2AC47"/>
      <stop offset="0.771" stop-color="#EDC967"/>
      <stop offset="0.973" stop-color="#926A05"/>
    </radialGradient>
    <radialGradient id="Gradient_42" gradientUnits="userSpaceOnUse" cx="152.957" cy="152.292" r="91.427" gradientTransform="matrix(1, 0.023, -0.023, 1, 0, 0)">
      <stop offset="0" stop-color="#926906"/>
      <stop offset="0.463" stop-color="#D2AC47"/>
      <stop offset="0.771" stop-color="#EDC967"/>
      <stop offset="0.973" stop-color="#926A05"/>
    </radialGradient>
    <radialGradient id="Gradient_43" gradientUnits="userSpaceOnUse" cx="152.957" cy="152.292" r="91.427" gradientTransform="matrix(1, 0.023, -0.023, 1, 0, 0)">
      <stop offset="0" stop-color="#926906"/>
      <stop offset="0.463" stop-color="#D2AC47"/>
      <stop offset="0.771" stop-color="#EDC967"/>
      <stop offset="0.973" stop-color="#926A05"/>
    </radialGradient>
    <radialGradient id="Gradient_44" gradientUnits="userSpaceOnUse" cx="152.957" cy="152.292" r="91.427" gradientTransform="matrix(1, 0.023, -0.023, 1, 0, 0)">
      <stop offset="0" stop-color="#926906"/>
      <stop offset="0.463" stop-color="#D2AC47"/>
      <stop offset="0.771" stop-color="#EDC967"/>
      <stop offset="0.973" stop-color="#926A05"/>
    </radialGradient>
    <radialGradient id="Gradient_45" gradientUnits="userSpaceOnUse" cx="152.957" cy="152.292" r="91.427" gradientTransform="matrix(1, 0.023, -0.023, 1, 0, 0)">
      <stop offset="0" stop-color="#926906"/>
      <stop offset="0.463" stop-color="#D2AC47"/>
      <stop offset="0.771" stop-color="#EDC967"/>
      <stop offset="0.973" stop-color="#926A05"/>
    </radialGradient>
    <radialGradient id="Gradient_46" gradientUnits="userSpaceOnUse" cx="152.957" cy="152.292" r="91.427" gradientTransform="matrix(1, 0.023, -0.023, 1, 0, 0)">
      <stop offset="0" stop-color="#926906"/>
      <stop offset="0.463" stop-color="#D2AC47"/>
      <stop offset="0.771" stop-color="#EDC967"/>
      <stop offset="0.973" stop-color="#926A05"/>
    </radialGradient>
    <radialGradient id="Gradient_47" gradientUnits="userSpaceOnUse" cx="152.957" cy="152.292" r="91.427" gradientTransform="matrix(1, 0.023, -0.023, 1, 0, 0)">
      <stop offset="0" stop-color="#926906"/>
      <stop offset="0.463" stop-color="#D2AC47"/>
      <stop offset="0.771" stop-color="#EDC967"/>
      <stop offset="0.973" stop-color="#926A05"/>
    </radialGradient>
    <radialGradient id="Gradient_48" gradientUnits="userSpaceOnUse" cx="152.957" cy="152.292" r="91.427" gradientTransform="matrix(1, 0.023, -0.023, 1, 0, 0)">
      <stop offset="0" stop-color="#926906"/>
      <stop offset="0.463" stop-color="#D2AC47"/>
      <stop offset="0.771" stop-color="#EDC967"/>
      <stop offset="0.973" stop-color="#926A05"/>
    </radialGradient>
  </defs>
  <g id="Layer_1">
    <g>
      <path d="M438.835,42.928 L441.269,40.341 L441.863,40.475 Q443.013,40.762 444.048,40.897 Q445.601,39.938 446.147,38.587 Q446.694,37.235 447.135,33.325 L448.745,18.891 Q444.758,19.179 442.381,21.038 Q440.004,22.897 440.004,25.715 Q440.004,27.402 440.847,28.897 L437.761,31.619 Q437.359,30.143 437.359,28.629 Q437.359,23.453 441.777,20.147 Q446.195,16.84 453.077,16.84 Q461.952,16.84 461.952,21.939 Q461.952,26.29 456.22,28.897 Q461.818,31.082 461.818,35.606 Q461.818,39.286 458.08,41.472 Q454.342,43.657 448.074,43.657 Q444.221,43.657 438.835,42.928 z M451.85,18.738 L450.719,28.897 Q451.85,28.993 452.674,28.993 Q453.594,28.993 454.879,28.859 Q458.961,26.501 458.961,23.185 Q458.961,18.738 451.85,18.738 z M450.547,30.431 L450.259,32.999 L450.086,34.609 Q449.761,37.465 448.946,38.625 Q448.131,39.785 445.486,41.127 Q449.281,41.74 452.981,41.74 Q458.961,41.74 458.961,36.986 Q458.961,34.935 457.323,33.028 Q455.684,31.121 453.326,30.431 L452.828,30.45 L451.908,30.488 L451.064,30.45 z" fill="url(#Gradient_1)"/>
      <path d="M466.704,43.654 Q464.404,43.654 464.404,40.608 Q464.404,38.154 466.203,35.879 Q468.003,33.605 469.935,33.605 Q472.266,33.605 472.266,36.651 Q472.266,39.115 470.466,41.385 Q468.667,43.654 466.704,43.654 z M467.941,42.509 Q469.117,42.509 469.909,41.201 Q470.702,39.892 470.702,37.939 Q470.702,34.75 468.718,34.75 Q467.553,34.75 466.76,36.064 Q465.968,37.377 465.968,39.32 Q465.968,42.509 467.941,42.509 z" fill="url(#Gradient_2)"/>
      <path d="M475.68,43.654 Q473.38,43.654 473.38,40.608 Q473.38,38.154 475.179,35.879 Q476.979,33.605 478.911,33.605 Q481.242,33.605 481.242,36.651 Q481.242,39.115 479.442,41.385 Q477.643,43.654 475.68,43.654 z M476.917,42.509 Q478.093,42.509 478.885,41.201 Q479.677,39.892 479.677,37.939 Q479.677,34.75 477.694,34.75 Q476.529,34.75 475.736,36.064 Q474.944,37.377 474.944,39.32 Q474.944,42.509 476.917,42.509 z" fill="url(#Gradient_3)"/>
      <path d="M485.147,36.958 Q485.914,35.527 487.074,34.566 Q488.234,33.605 489.205,33.605 Q490.514,33.605 490.514,34.954 Q490.514,36.242 489.425,37.311 Q488.337,38.379 486.547,38.849 Q488.49,42.335 489.441,42.335 Q490.126,42.335 490.882,41.139 Q491.117,41.313 491.117,41.477 Q491.117,41.957 490.177,42.795 Q489.236,43.634 488.664,43.654 Q487.641,43.705 485.188,39.309 L484.932,38.849 L484.472,43.031 L482.949,43.654 L482.98,43.368 L483.061,42.611 L483.143,41.896 L484.145,32.94 Q484.493,29.761 486.486,27.522 Q488.48,25.283 490.954,25.283 Q491.465,25.283 491.935,25.396 L490.432,26.868 Q489.85,26.694 489.328,26.694 Q486.292,26.694 485.76,31.438 z M484.963,38.543 Q486.609,38.543 487.713,37.801 Q488.817,37.06 488.817,35.966 Q488.817,34.862 488.04,34.862 Q487.324,34.862 486.45,35.91 Q485.576,36.958 484.963,38.543 z" fill="url(#Gradient_4)"/>
      <path d="M520.54,30.431 Q520.923,31.159 521.096,31.523 Q524.144,37.427 525.428,39.286 Q526.712,41.146 527.805,41.203 Q529.53,41.299 530.489,38.558 Q531.121,38.922 531.121,39.344 Q531.121,40.551 529.501,42.353 Q527.882,44.155 526.789,44.155 Q525.198,44.155 522.649,40.666 Q520.099,37.178 517.588,31.542 Q516.534,31.638 515.786,31.638 Q515.058,31.638 513.946,31.542 L513.793,32.807 L513.544,35.012 Q513.218,37.753 512.374,38.951 Q511.531,40.149 509.096,41.299 L513.62,41.587 L511.32,43.81 L503.02,43.388 L505.474,41.012 L507.563,41.242 Q509.882,39.766 510.438,35.203 L510.649,33.344 L512.259,18.814 Q503.538,20.463 503.538,25.389 Q503.538,27.364 504.362,28.897 L501.276,31.619 Q500.873,30.143 500.873,28.629 Q500.873,23.434 505.301,20.137 Q509.729,16.84 516.706,16.84 Q526.176,16.84 526.176,22.859 Q526.176,27.249 520.54,30.431 z M515.365,18.68 L514.138,29.798 Q515.671,30.047 516.936,30.047 Q518.125,30.047 519.524,29.798 Q522.955,27.344 522.955,23.856 Q522.955,18.68 515.365,18.68 z" fill="url(#Gradient_5)"/>
      <path d="M536.896,39.33 Q535.741,41.231 534.355,42.443 Q532.97,43.654 531.948,43.654 Q530.547,43.654 530.547,41.395 Q530.547,38.287 532.587,36.012 Q534.626,33.738 537.417,33.738 Q538.48,33.738 539.227,34.004 Q539.176,34.188 539.165,34.228 L539.043,34.77 Q538.92,35.333 538.91,35.425 L538.256,39.943 L538.164,40.597 Q538.031,41.569 538.031,41.896 Q538.031,42.335 538.286,42.335 Q539.145,42.335 540.045,40.413 Q540.321,40.577 540.321,40.741 Q540.321,41.098 539.441,42.182 Q538.245,43.654 537.223,43.654 Q536.477,43.654 536.477,42.652 Q536.477,42.346 536.548,41.804 L536.651,40.986 L536.783,40.086 z M537.479,35.271 Q536.548,34.75 535.598,34.75 Q534.166,34.75 533.195,36.498 Q532.224,38.246 532.224,40.833 Q532.224,42.162 533.011,42.162 Q533.921,42.162 535.209,40.771 Q536.947,38.9 537.315,36.375 z" fill="url(#Gradient_6)"/>
      <path d="M544.492,35.057 L543.981,39.575 Q543.848,40.792 543.848,41.374 Q543.848,42.53 544.635,42.53 Q545.483,42.53 546.393,41.139 Q546.547,41.334 546.547,41.487 Q546.547,42.059 545.54,42.857 Q544.533,43.654 543.807,43.654 Q542.355,43.654 542.355,41.794 Q542.355,41.109 542.529,39.575 L543.03,35.057 L540.873,35.057 L542.069,33.871 L543.163,33.871 L543.377,32.01 L544.88,31.509 L544.625,33.871 L550.493,33.871 L549.818,39.943 L549.746,40.597 Q549.654,41.466 549.654,41.824 Q549.654,42.335 549.92,42.335 Q550.789,42.335 551.627,40.413 Q551.914,40.577 551.914,40.751 Q551.914,41.109 551.075,42.182 Q549.92,43.654 548.908,43.654 Q548.121,43.654 548.121,42.571 Q548.121,42.172 548.254,40.986 L548.346,40.086 L548.908,35.057 z M549.665,32.286 L550.523,30.17 Q551.668,29.7 552.404,28.872 Q552.517,29.015 552.517,29.168 Q552.517,30.538 549.665,32.286 z" fill="url(#Gradient_7)"/>
      <path d="M555.717,43.031 L554.193,43.654 L554.224,43.368 L554.306,42.611 L554.388,41.896 L554.919,37.152 L554.981,36.61 Q555.042,35.977 555.042,35.588 Q555.042,34.934 554.715,34.934 Q553.948,34.934 553.069,36.672 Q552.834,36.478 552.834,36.334 Q552.834,35.721 553.953,34.663 Q555.073,33.605 555.717,33.605 Q556.596,33.605 556.596,34.729 Q556.596,35.016 556.545,35.496 L556.463,36.324 L556.381,37.019 L556.299,37.745 Q557.506,35.946 558.942,34.775 Q560.378,33.605 561.391,33.605 Q562.382,33.605 562.382,34.985 Q562.382,35.404 562.27,36.242 L561.718,40.056 Q561.554,41.201 561.554,41.865 Q561.554,42.397 561.84,42.397 Q562.546,42.397 563.578,40.516 Q563.824,40.669 563.824,40.833 Q563.824,41.497 562.684,42.576 Q561.544,43.654 560.828,43.654 Q560.031,43.654 560.031,42.509 Q560.031,41.671 560.246,40.189 L560.603,37.715 Q560.777,36.508 560.777,35.803 Q560.777,34.995 560.215,34.995 Q558.906,34.995 557.562,36.769 Q556.218,38.543 555.993,40.577 z" fill="url(#Gradient_8)"/>
      <path d="M571.522,35.271 Q570.786,34.75 569.671,34.75 Q568.271,34.75 567.305,36.508 Q566.339,38.267 566.339,40.833 Q566.339,42.162 567.126,42.162 Q568.025,42.162 569.324,40.771 Q571.123,38.839 571.389,36.396 z M573.27,34.004 Q573.219,34.188 573.209,34.228 L573.096,34.77 Q572.963,35.363 572.953,35.425 L572.544,39.166 Q572.442,40.107 572.329,42.468 Q572.186,45.423 571.767,46.844 Q571.348,48.265 570.285,49.379 Q567.852,51.945 565.102,51.945 Q563.773,51.945 562.893,51.046 Q562.014,50.146 562.014,48.796 Q562.014,46.046 565.378,43.368 Q564.662,42.806 564.662,41.385 Q564.662,38.297 566.696,36.018 Q568.731,33.738 571.501,33.738 Q572.677,33.738 573.27,34.004 z M571.062,39.371 Q568.301,43.583 566.063,43.583 Q565.971,43.583 565.735,43.562 Q563.364,45.954 563.364,47.825 Q563.364,49.103 564.268,49.967 Q565.173,50.831 566.512,50.831 Q568.578,50.831 569.682,49.011 Q570.52,47.611 570.847,42.335 Q570.97,40.342 571.062,39.371 z" fill="url(#Gradient_9)"/>
      <path d="M587.138,28.552 L584.129,31.446 Q583.343,29.395 583.343,27.479 Q583.343,22.725 587.464,19.811 Q590.914,17.358 599.272,17.358 Q600.69,17.358 601.764,17.415 Q604.735,17.607 604.812,17.607 L606.153,17.607 Q604.658,19.945 604.658,27.076 L604.677,28.073 L604.754,30.277 Q604.754,34.245 605.732,38.405 Q606.115,40.015 606.479,40.475 Q606.843,40.935 607.744,40.935 Q608.722,40.935 609.968,40.302 Q610.102,40.628 610.102,40.839 Q610.102,41.318 609.354,41.663 L608.454,42.104 L603.738,44.155 Q602.166,39.306 601.84,33.996 L600.384,35.012 L593.943,35.012 Q592.18,39.497 589.113,41.414 L593.08,41.606 L591.01,43.791 L583.362,43.523 L585.911,41.222 L587.828,41.337 Q589.132,40.379 590.052,38.644 Q590.972,36.909 592.793,31.926 L593.368,30.335 Q595.131,25.523 596.722,23.329 Q598.313,21.134 601.055,19.715 Q598.045,19.159 594.71,19.159 Q586.218,19.159 586.218,24.891 Q586.218,26.846 587.138,28.552 z M601.802,32.942 Q601.534,29.606 601.534,27.536 Q601.534,26.482 601.572,25.811 L601.725,23.587 Q601.879,21.306 602.147,20.099 Q598.39,22.399 595.975,29.491 Q595.285,31.542 595.17,31.849 L594.729,32.942 z" fill="url(#Gradient_10)"/>
      <path d="M612.535,43.511 L612.453,44.319 Q612.136,47.488 610.163,49.737 Q608.19,51.986 605.727,51.986 Q605.215,51.986 604.745,51.863 L606.227,50.391 Q606.81,50.565 607.332,50.565 Q610.378,50.565 610.848,45.822 L611.912,35.22 Q611.431,35.578 610.879,36.048 Q610.204,36.621 609.693,36.948 L609.775,36.13 Q611.503,35.108 613.568,33.206 L613.097,37.939 Q614.181,36.038 615.531,34.821 Q616.88,33.605 617.902,33.605 Q619.374,33.605 619.374,36.12 Q619.374,39.115 617.442,41.318 Q615.51,43.521 612.883,43.521 z M612.688,41.988 Q613.517,42.509 614.559,42.509 Q615.96,42.509 616.834,40.874 Q617.708,39.238 617.708,36.631 Q617.708,35.108 616.88,35.108 Q615.97,35.108 614.723,36.498 Q613.057,38.348 612.801,40.884 z" fill="url(#Gradient_11)"/>
      <path d="M622.953,43.511 L622.871,44.319 Q622.554,47.488 620.581,49.737 Q618.608,51.986 616.144,51.986 Q615.633,51.986 615.162,51.863 L616.645,50.391 Q617.228,50.565 617.749,50.565 Q620.795,50.565 621.266,45.822 L622.329,35.22 Q621.848,35.578 621.296,36.048 Q620.622,36.621 620.111,36.948 L620.192,36.13 Q621.92,35.108 623.985,33.206 L623.515,37.939 Q624.599,36.038 625.948,34.821 Q627.297,33.605 628.32,33.605 Q629.792,33.605 629.792,36.12 Q629.792,39.115 627.86,41.318 Q625.927,43.521 623.3,43.521 z M623.106,41.988 Q623.934,42.509 624.977,42.509 Q626.377,42.509 627.251,40.874 Q628.125,39.238 628.125,36.631 Q628.125,35.108 627.297,35.108 Q626.388,35.108 625.14,36.498 Q623.474,38.348 623.218,40.884 z" fill="url(#Gradient_12)"/>
    </g>
    <g>
      <path d="M290.02,-57.165 L292.182,-59.464 L292.71,-59.345 Q293.732,-59.089 294.651,-58.97 Q296.03,-59.822 296.516,-61.022 Q297.001,-62.222 297.392,-65.696 L298.823,-78.517 Q295.281,-78.262 293.17,-76.61 Q291.059,-74.958 291.059,-72.455 Q291.059,-70.957 291.808,-69.629 L289.066,-67.211 Q288.709,-68.522 288.709,-69.867 Q288.709,-74.465 292.634,-77.402 Q296.558,-80.339 302.671,-80.339 Q310.554,-80.339 310.554,-75.81 Q310.554,-71.945 305.463,-69.629 Q310.435,-67.688 310.435,-63.67 Q310.435,-60.401 307.115,-58.459 Q303.795,-56.518 298.227,-56.518 Q294.804,-56.518 290.02,-57.165 z M301.581,-78.653 L300.577,-69.629 Q301.581,-69.544 302.313,-69.544 Q303.13,-69.544 304.271,-69.663 Q307.898,-71.757 307.898,-74.703 Q307.898,-78.653 301.581,-78.653 z M300.423,-68.267 L300.168,-65.985 L300.015,-64.555 Q299.725,-62.018 299.002,-60.988 Q298.278,-59.958 295.928,-58.766 Q299.299,-58.221 302.586,-58.221 Q307.898,-58.221 307.898,-62.444 Q307.898,-64.266 306.442,-65.96 Q304.986,-67.654 302.892,-68.267 L302.449,-68.25 L301.632,-68.216 L300.883,-68.25 z" fill="url(#Gradient_13)"/>
      <path d="M314.988,-56.504 Q312.799,-56.504 312.799,-59.403 Q312.799,-61.738 314.512,-63.903 Q316.224,-66.068 318.063,-66.068 Q320.281,-66.068 320.281,-63.169 Q320.281,-60.824 318.569,-58.664 Q316.857,-56.504 314.988,-56.504 z M316.166,-57.594 Q317.285,-57.594 318.039,-58.839 Q318.793,-60.084 318.793,-61.943 Q318.793,-64.978 316.905,-64.978 Q315.796,-64.978 315.042,-63.728 Q314.288,-62.478 314.288,-60.629 Q314.288,-57.594 316.166,-57.594 z" fill="url(#Gradient_14)"/>
      <path d="M323.531,-56.504 Q321.342,-56.504 321.342,-59.403 Q321.342,-61.738 323.054,-63.903 Q324.767,-66.068 326.606,-66.068 Q328.824,-66.068 328.824,-63.169 Q328.824,-60.824 327.111,-58.664 Q325.399,-56.504 323.531,-56.504 z M324.708,-57.594 Q325.827,-57.594 326.581,-58.839 Q327.335,-60.084 327.335,-61.943 Q327.335,-64.978 325.448,-64.978 Q324.339,-64.978 323.585,-63.728 Q322.83,-62.478 322.83,-60.629 Q322.83,-57.594 324.708,-57.594 z" fill="url(#Gradient_15)"/>
      <path d="M332.541,-62.877 Q333.27,-64.239 334.375,-65.153 Q335.479,-66.068 336.403,-66.068 Q337.649,-66.068 337.649,-64.784 Q337.649,-63.558 336.612,-62.541 Q335.576,-61.524 333.874,-61.077 Q335.722,-57.759 336.627,-57.759 Q337.279,-57.759 337.999,-58.897 Q338.223,-58.732 338.223,-58.576 Q338.223,-58.119 337.328,-57.321 Q336.432,-56.523 335.888,-56.504 Q334.915,-56.455 332.58,-60.639 L332.336,-61.077 L331.898,-57.097 L330.449,-56.504 L330.478,-56.776 L330.556,-57.496 L330.634,-58.177 L331.587,-66.7 Q331.918,-69.726 333.815,-71.857 Q335.712,-73.988 338.067,-73.988 Q338.553,-73.988 339.001,-73.881 L337.571,-72.48 Q337.016,-72.645 336.52,-72.645 Q333.63,-72.645 333.124,-68.131 z M332.365,-61.369 Q333.932,-61.369 334.983,-62.074 Q336.034,-62.779 336.034,-63.82 Q336.034,-64.871 335.294,-64.871 Q334.613,-64.871 333.781,-63.874 Q332.949,-62.877 332.365,-61.369 z" fill="url(#Gradient_16)"/>
      <path d="M363.757,-68.267 Q364.098,-67.62 364.251,-67.296 Q366.958,-62.052 368.099,-60.401 Q369.24,-58.749 370.21,-58.698 Q371.743,-58.613 372.594,-61.048 Q373.156,-60.724 373.156,-60.349 Q373.156,-59.277 371.717,-57.676 Q370.278,-56.076 369.308,-56.076 Q367.895,-56.076 365.63,-59.175 Q363.365,-62.273 361.135,-67.279 Q360.198,-67.194 359.534,-67.194 Q358.887,-67.194 357.9,-67.279 L357.764,-66.156 L357.542,-64.197 Q357.253,-61.763 356.504,-60.698 Q355.754,-59.634 353.592,-58.613 L357.61,-58.357 L355.567,-56.382 L348.195,-56.757 L350.374,-58.868 L352.23,-58.664 Q354.29,-59.975 354.784,-64.027 L354.971,-65.679 L356.401,-78.585 Q348.654,-77.121 348.654,-72.745 Q348.654,-70.991 349.386,-69.629 L346.645,-67.211 Q346.288,-68.522 346.288,-69.867 Q346.288,-74.482 350.221,-77.41 Q354.154,-80.339 360.352,-80.339 Q368.763,-80.339 368.763,-74.992 Q368.763,-71.093 363.757,-68.267 z M359.16,-78.704 L358.07,-68.829 Q359.432,-68.607 360.556,-68.607 Q361.612,-68.607 362.855,-68.829 Q365.902,-71.008 365.902,-74.107 Q365.902,-78.704 359.16,-78.704 z" fill="url(#Gradient_17)"/>
      <path d="M378.758,-60.619 Q377.658,-58.81 376.34,-57.657 Q375.021,-56.504 374.048,-56.504 Q372.716,-56.504 372.716,-58.654 Q372.716,-61.612 374.657,-63.777 Q376.598,-65.942 379.254,-65.942 Q380.266,-65.942 380.976,-65.689 Q380.927,-65.513 380.918,-65.475 L380.801,-64.959 Q380.684,-64.424 380.674,-64.336 L380.052,-60.036 L379.964,-59.413 Q379.838,-58.489 379.838,-58.177 Q379.838,-57.759 380.081,-57.759 Q380.898,-57.759 381.754,-59.588 Q382.017,-59.432 382.017,-59.277 Q382.017,-58.936 381.18,-57.905 Q380.042,-56.504 379.069,-56.504 Q378.359,-56.504 378.359,-57.457 Q378.359,-57.749 378.427,-58.265 L378.524,-59.043 L378.651,-59.899 z M379.312,-64.482 Q378.427,-64.978 377.522,-64.978 Q376.16,-64.978 375.236,-63.315 Q374.311,-61.651 374.311,-59.189 Q374.311,-57.924 375.06,-57.924 Q375.926,-57.924 377.152,-59.248 Q378.806,-61.028 379.157,-63.431 z" fill="url(#Gradient_18)"/>
      <path d="M385.987,-64.686 L385.5,-60.386 Q385.374,-59.228 385.374,-58.674 Q385.374,-57.574 386.123,-57.574 Q386.93,-57.574 387.796,-58.897 Q387.942,-58.712 387.942,-58.566 Q387.942,-58.022 386.984,-57.263 Q386.026,-56.504 385.335,-56.504 Q383.953,-56.504 383.953,-58.275 Q383.953,-58.926 384.119,-60.386 L384.595,-64.686 L382.542,-64.686 L383.681,-65.815 L384.722,-65.815 L384.926,-67.586 L386.356,-68.063 L386.113,-65.815 L391.698,-65.815 L391.056,-60.036 L390.988,-59.413 Q390.9,-58.586 390.9,-58.245 Q390.9,-57.759 391.153,-57.759 Q391.98,-57.759 392.778,-59.588 Q393.05,-59.432 393.05,-59.267 Q393.05,-58.926 392.253,-57.905 Q391.153,-56.504 390.19,-56.504 Q389.441,-56.504 389.441,-57.535 Q389.441,-57.915 389.567,-59.043 L389.655,-59.899 L390.19,-64.686 z M390.91,-67.323 L391.727,-69.337 Q392.817,-69.785 393.517,-70.573 Q393.624,-70.437 393.624,-70.291 Q393.624,-68.987 390.91,-67.323 z" fill="url(#Gradient_19)"/>
      <path d="M396.67,-57.097 L395.22,-56.504 L395.249,-56.776 L395.327,-57.496 L395.405,-58.177 L395.911,-62.692 L395.969,-63.208 Q396.028,-63.811 396.028,-64.18 Q396.028,-64.803 395.716,-64.803 Q394.987,-64.803 394.15,-63.149 Q393.926,-63.334 393.926,-63.47 Q393.926,-64.054 394.991,-65.061 Q396.057,-66.068 396.67,-66.068 Q397.507,-66.068 397.507,-64.998 Q397.507,-64.725 397.458,-64.268 L397.38,-63.48 L397.302,-62.818 L397.224,-62.128 Q398.372,-63.84 399.739,-64.954 Q401.106,-66.068 402.07,-66.068 Q403.013,-66.068 403.013,-64.755 Q403.013,-64.356 402.906,-63.558 L402.381,-59.929 Q402.225,-58.839 402.225,-58.207 Q402.225,-57.701 402.498,-57.701 Q403.169,-57.701 404.152,-59.491 Q404.385,-59.345 404.385,-59.189 Q404.385,-58.557 403.3,-57.53 Q402.216,-56.504 401.535,-56.504 Q400.776,-56.504 400.776,-57.594 Q400.776,-58.391 400.98,-59.802 L401.32,-62.157 Q401.486,-63.305 401.486,-63.976 Q401.486,-64.745 400.951,-64.745 Q399.705,-64.745 398.426,-63.057 Q397.147,-61.369 396.932,-59.432 z" fill="url(#Gradient_20)"/>
      <path d="M411.712,-64.482 Q411.011,-64.978 409.951,-64.978 Q408.618,-64.978 407.698,-63.305 Q406.779,-61.631 406.779,-59.189 Q406.779,-57.924 407.528,-57.924 Q408.384,-57.924 409.62,-59.248 Q411.332,-61.086 411.585,-63.412 z M413.375,-65.689 Q413.327,-65.513 413.317,-65.475 L413.21,-64.959 Q413.084,-64.395 413.074,-64.336 L412.685,-60.775 Q412.587,-59.88 412.48,-57.632 Q412.344,-54.821 411.945,-53.468 Q411.546,-52.116 410.534,-51.055 Q408.219,-48.613 405.602,-48.613 Q404.337,-48.613 403.5,-49.469 Q402.663,-50.326 402.663,-51.61 Q402.663,-54.227 405.864,-56.776 Q405.183,-57.311 405.183,-58.664 Q405.183,-61.602 407.119,-63.772 Q409.056,-65.942 411.692,-65.942 Q412.811,-65.942 413.375,-65.689 z M411.274,-60.581 Q408.647,-56.572 406.516,-56.572 Q406.429,-56.572 406.205,-56.591 Q403.947,-54.315 403.947,-52.534 Q403.947,-51.318 404.809,-50.496 Q405.67,-49.674 406.944,-49.674 Q408.91,-49.674 409.96,-51.406 Q410.758,-52.738 411.07,-57.759 Q411.186,-59.656 411.274,-60.581 z" fill="url(#Gradient_21)"/>
      <path d="M425.113,-69.936 L422.44,-67.364 Q421.742,-69.186 421.742,-70.889 Q421.742,-75.112 425.403,-77.7 Q428.468,-79.879 435.891,-79.879 Q437.151,-79.879 438.105,-79.828 Q440.744,-79.658 440.812,-79.658 L442.004,-79.658 Q440.676,-77.581 440.676,-71.247 L440.693,-70.361 L440.761,-68.403 Q440.761,-64.879 441.629,-61.184 Q441.97,-59.754 442.293,-59.345 Q442.617,-58.936 443.417,-58.936 Q444.285,-58.936 445.392,-59.498 Q445.511,-59.209 445.511,-59.021 Q445.511,-58.596 444.847,-58.289 L444.047,-57.898 L439.858,-56.076 Q438.462,-60.383 438.173,-65.1 L436.879,-64.197 L431.158,-64.197 Q429.591,-60.213 426.867,-58.511 L430.392,-58.34 L428.553,-56.399 L421.759,-56.638 L424.024,-58.681 L425.726,-58.579 Q426.884,-59.43 427.701,-60.971 Q428.519,-62.512 430.136,-66.939 L430.647,-68.352 Q432.213,-72.626 433.627,-74.575 Q435.04,-76.525 437.475,-77.785 Q434.801,-78.279 431.839,-78.279 Q424.296,-78.279 424.296,-73.188 Q424.296,-71.451 425.113,-69.936 z M438.139,-66.036 Q437.9,-68.999 437.9,-70.838 Q437.9,-71.774 437.934,-72.37 L438.071,-74.345 Q438.207,-76.372 438.445,-77.444 Q435.108,-75.401 432.963,-69.101 Q432.35,-67.279 432.247,-67.007 L431.856,-66.036 z" fill="url(#Gradient_22)"/>
      <path d="M447.885,-56.64 L447.807,-55.871 Q447.506,-52.855 445.628,-50.715 Q443.75,-48.574 441.405,-48.574 Q440.919,-48.574 440.471,-48.691 L441.882,-50.092 Q442.437,-49.927 442.933,-49.927 Q445.832,-49.927 446.28,-54.441 L447.292,-64.531 Q446.835,-64.19 446.309,-63.743 Q445.667,-63.198 445.181,-62.886 L445.258,-63.665 Q446.903,-64.638 448.868,-66.447 L448.42,-61.943 Q449.452,-63.752 450.736,-64.91 Q452.02,-66.068 452.993,-66.068 Q454.394,-66.068 454.394,-63.675 Q454.394,-60.824 452.556,-58.727 Q450.717,-56.63 448.216,-56.63 z M448.031,-58.09 Q448.819,-57.594 449.812,-57.594 Q451.145,-57.594 451.977,-59.15 Q452.809,-60.707 452.809,-63.188 Q452.809,-64.638 452.02,-64.638 Q451.154,-64.638 449.967,-63.315 Q448.382,-61.553 448.138,-59.141 z" fill="url(#Gradient_23)"/>
      <path d="M457.8,-56.64 L457.722,-55.871 Q457.42,-52.855 455.543,-50.715 Q453.665,-48.574 451.32,-48.574 Q450.833,-48.574 450.386,-48.691 L451.797,-50.092 Q452.351,-49.927 452.847,-49.927 Q455.747,-49.927 456.194,-54.441 L457.206,-64.531 Q456.749,-64.19 456.224,-63.743 Q455.581,-63.198 455.095,-62.886 L455.173,-63.665 Q456.817,-64.638 458.782,-66.447 L458.335,-61.943 Q459.366,-63.752 460.651,-64.91 Q461.935,-66.068 462.908,-66.068 Q464.309,-66.068 464.309,-63.675 Q464.309,-60.824 462.47,-58.727 Q460.631,-56.63 458.131,-56.63 z M457.946,-58.09 Q458.734,-57.594 459.726,-57.594 Q461.059,-57.594 461.891,-59.15 Q462.723,-60.707 462.723,-63.188 Q462.723,-64.638 461.935,-64.638 Q461.069,-64.638 459.882,-63.315 Q458.296,-61.553 458.053,-59.141 z" fill="url(#Gradient_24)"/>
    </g>
    <g>
      <path d="M46.231,109.241 L47.558,105.619 L48.209,105.499 Q49.48,105.296 50.571,104.989 Q51.713,103.369 51.682,101.787 Q51.652,100.204 50.424,96.111 L45.876,81.01 Q42.017,82.997 40.436,85.868 Q38.856,88.738 40.057,91.552 Q40.777,93.237 42.257,94.37 L40.336,98.405 Q39.304,97.102 38.658,95.59 Q36.451,90.422 39.453,85.235 Q42.455,80.049 49.328,77.114 Q58.191,73.329 60.366,78.421 Q62.221,82.766 57.609,87.814 Q64.131,87.609 66.06,92.127 Q67.63,95.802 64.829,99.579 Q62.028,103.355 55.768,106.028 Q51.921,107.672 46.231,109.241 z M48.912,79.532 L52.115,90.16 Q53.286,89.774 54.109,89.422 Q55.028,89.03 56.253,88.348 Q59.325,84.252 57.911,80.94 Q56.014,76.499 48.912,79.532 z M52.597,91.765 L53.405,94.453 L53.92,96.134 Q54.812,99.126 54.494,100.631 Q54.175,102.137 52.105,104.605 Q56.157,103.599 59.852,102.021 Q65.824,99.471 63.797,94.723 Q62.922,92.675 60.472,91.469 Q58.022,90.263 55.373,90.58 L54.883,90.811 L53.981,91.242 L53.122,91.564 z" fill="url(#Gradient_25)"/>
      <path d="M75.204,99.764 Q72.606,100.403 71.759,96.961 Q71.078,94.189 72.479,91.119 Q73.881,88.049 76.064,87.512 Q78.697,86.865 79.543,90.307 Q80.228,93.091 78.825,96.155 Q77.422,99.219 75.204,99.764 z M76.284,98.127 Q77.612,97.8 78.144,96.102 Q78.676,94.403 78.134,92.197 Q77.248,88.593 75.007,89.144 Q73.69,89.468 73.16,91.172 Q72.63,92.876 73.169,95.071 Q74.055,98.675 76.284,98.127 z" fill="url(#Gradient_26)"/>
      <path d="M85.381,97.501 Q82.754,98.008 82.083,94.527 Q81.543,91.724 83.097,88.729 Q84.652,85.734 86.86,85.309 Q89.522,84.796 90.193,88.276 Q90.736,91.091 89.18,94.08 Q87.624,97.069 85.381,97.501 z M86.543,95.921 Q87.886,95.662 88.503,93.993 Q89.12,92.323 88.69,90.092 Q87.988,86.448 85.722,86.885 Q84.39,87.142 83.774,88.817 Q83.158,90.492 83.586,92.711 Q84.288,96.355 86.543,95.921 z" fill="url(#Gradient_27)"/>
      <path d="M95.073,87.916 Q95.71,86.138 96.881,84.833 Q98.052,83.529 99.169,83.363 Q100.675,83.139 100.906,84.692 Q101.127,86.174 100.057,87.59 Q98.987,89.006 97.008,89.853 Q99.84,93.532 100.934,93.37 Q101.723,93.252 102.389,91.746 Q102.689,91.906 102.717,92.094 Q102.799,92.647 101.86,93.773 Q100.921,94.899 100.266,95.02 Q99.098,95.254 95.522,90.615 L95.149,90.13 L95.336,95.02 L93.689,95.999 L93.676,95.664 L93.64,94.779 L93.612,93.942 L93.232,83.464 Q93.088,79.746 94.999,76.828 Q96.909,73.91 99.757,73.486 Q100.345,73.399 100.905,73.448 L99.428,75.399 Q98.728,75.299 98.128,75.388 Q94.633,75.908 94.833,81.458 z M95.132,89.771 Q97.026,89.49 98.17,88.448 Q99.314,87.406 99.127,86.147 Q98.938,84.876 98.043,85.009 Q97.22,85.132 96.393,86.487 Q95.567,87.843 95.132,89.771 z" fill="url(#Gradient_28)"/>
      <path d="M133.414,77.797 Q133.871,78.565 134.079,78.95 Q137.723,85.178 139.222,87.12 Q140.722,89.063 141.91,89.062 Q143.786,89.067 144.668,86.04 Q145.375,86.398 145.399,86.856 Q145.469,88.165 143.816,90.212 Q142.163,92.259 140.978,92.322 Q139.252,92.413 136.288,88.776 Q133.323,85.139 130.276,79.172 Q129.139,79.337 128.328,79.38 Q127.538,79.421 126.327,79.381 L126.233,80.762 L126.09,83.167 Q125.894,86.158 125.048,87.505 Q124.202,88.853 121.628,90.24 L126.55,90.292 L124.183,92.835 L115.159,92.854 L117.683,90.136 L119.962,90.266 Q122.392,88.532 122.733,83.553 L122.855,81.524 L123.767,65.676 Q114.404,67.964 114.687,73.306 Q114.8,75.447 115.782,77.063 L112.592,80.192 Q112.07,78.614 111.983,76.972 Q111.685,71.339 116.298,67.51 Q120.91,63.68 128.477,63.28 Q138.745,62.736 139.09,69.263 Q139.342,74.023 133.414,77.797 z M127.127,65.352 L126.435,77.479 Q128.112,77.661 129.484,77.588 Q130.773,77.52 132.276,77.17 Q135.856,74.312 135.656,70.529 Q135.359,64.917 127.127,65.352 z" fill="url(#Gradient_29)"/>
      <path d="M152.52,87.002 Q151.165,89.208 149.546,90.61 Q147.928,92.011 146.738,92.005 Q145.109,91.997 145.122,89.369 Q145.14,85.753 147.526,83.118 Q149.912,80.483 153.159,80.499 Q154.396,80.505 155.263,80.819 Q155.202,81.033 155.19,81.08 L155.044,81.71 Q154.898,82.363 154.886,82.47 L154.098,87.724 L153.988,88.485 Q153.827,89.614 153.826,89.994 Q153.823,90.506 154.12,90.507 Q155.12,90.512 156.177,88.281 Q156.498,88.473 156.497,88.664 Q156.495,89.08 155.465,90.336 Q154.065,92.042 152.876,92.036 Q152.008,92.031 152.013,90.866 Q152.015,90.509 152.101,89.879 L152.225,88.928 L152.385,87.882 z M153.221,82.284 Q152.142,81.672 151.036,81.666 Q149.371,81.658 148.231,83.686 Q147.091,85.715 147.076,88.724 Q147.068,90.27 147.984,90.275 Q149.042,90.28 150.549,88.67 Q152.582,86.503 153.025,83.567 z" fill="url(#Gradient_30)"/>
      <path d="M161.76,82.285 L160.933,87.511 Q160.716,88.918 160.686,89.596 Q160.627,90.938 161.542,90.979 Q162.528,91.023 163.657,89.453 Q163.825,89.687 163.817,89.865 Q163.788,90.531 162.576,91.406 Q161.365,92.281 160.521,92.243 Q158.834,92.169 158.93,90.006 Q158.965,89.21 159.246,87.436 L160.061,82.21 L157.553,82.099 L159.005,80.782 L160.276,80.838 L160.622,78.687 L162.394,78.182 L161.975,80.914 L168.796,81.216 L167.699,88.239 L167.582,88.996 Q167.431,90.002 167.412,90.418 Q167.386,91.012 167.695,91.025 Q168.705,91.07 169.778,88.879 Q170.103,89.084 170.094,89.286 Q170.075,89.702 169.046,90.907 Q167.627,92.558 166.451,92.506 Q165.536,92.466 165.591,91.206 Q165.612,90.743 165.828,89.371 L165.981,88.33 L166.893,82.513 z M167.915,79.331 L169.022,76.916 Q170.378,76.428 171.276,75.503 Q171.399,75.676 171.391,75.854 Q171.321,77.446 167.915,79.331 z" fill="url(#Gradient_31)"/>
      <path d="M174.402,92.273 L172.58,92.862 L172.641,92.532 L172.803,91.662 L172.961,90.839 L173.996,85.383 L174.115,84.759 Q174.242,84.03 174.277,83.579 Q174.334,82.82 173.955,82.791 Q173.065,82.723 171.892,84.662 Q171.636,84.416 171.649,84.25 Q171.703,83.538 173.095,82.409 Q174.487,81.281 175.235,81.338 Q176.255,81.415 176.155,82.72 Q176.13,83.052 176.028,83.605 L175.86,84.558 L175.704,85.358 L175.545,86.192 Q177.103,84.212 178.873,82.98 Q180.643,81.749 181.817,81.839 Q182.967,81.926 182.846,83.527 Q182.809,84.014 182.604,84.976 L181.627,89.351 Q181.336,90.665 181.277,91.436 Q181.23,92.053 181.562,92.078 Q182.381,92.14 183.745,90.049 Q184.016,90.249 184.001,90.439 Q183.943,91.21 182.525,92.36 Q181.107,93.511 180.277,93.448 Q179.352,93.377 179.453,92.049 Q179.527,91.076 179.907,89.375 L180.541,86.537 Q180.849,85.153 180.911,84.334 Q180.983,83.397 180.33,83.348 Q178.812,83.232 177.096,85.171 Q175.38,87.11 174.939,89.451 z" fill="url(#Gradient_32)"/>
      <path d="M193.727,85.052 Q192.944,84.354 191.655,84.209 Q190.036,84.027 188.691,85.935 Q187.346,87.843 187.013,90.81 Q186.84,92.346 187.75,92.448 Q188.791,92.565 190.472,91.126 Q192.803,89.126 193.428,86.335 z M195.913,83.813 Q195.83,84.019 195.813,84.065 L195.613,84.677 Q195.382,85.345 195.362,85.415 L194.404,89.688 Q194.164,90.762 193.727,93.478 Q193.178,96.876 192.509,98.464 Q191.84,100.053 190.466,101.204 Q187.32,103.855 184.14,103.498 Q182.604,103.325 181.704,102.171 Q180.804,101.017 180.979,99.457 Q181.336,96.277 185.573,93.616 Q184.818,92.873 185.002,91.23 Q185.403,87.661 188.051,85.289 Q190.699,82.917 193.903,83.276 Q195.262,83.429 195.913,83.813 z M192.663,89.732 Q188.925,94.244 186.337,93.954 Q186.23,93.942 185.961,93.887 Q182.908,96.346 182.666,98.509 Q182.5,99.986 183.434,101.103 Q184.368,102.219 185.916,102.393 Q188.304,102.66 189.817,100.7 Q190.968,99.189 192.03,93.132 Q192.431,90.843 192.663,89.732 z" fill="url(#Gradient_33)"/>
      <path d="M212.221,80.904 L208.377,83.309 Q207.999,80.953 208.427,78.916 Q209.487,73.864 214.517,71.687 Q218.731,69.849 227.613,71.713 Q229.121,72.03 230.249,72.33 Q233.363,73.197 233.445,73.214 L234.871,73.513 Q232.76,75.665 231.17,83.243 L230.968,84.307 L230.557,86.667 Q229.672,90.884 229.783,95.522 Q229.832,97.319 230.116,97.889 Q230.401,98.459 231.358,98.66 Q232.397,98.878 233.862,98.484 Q233.932,98.86 233.885,99.084 Q233.778,99.594 232.907,99.794 L231.851,100.061 L226.382,101.189 Q225.793,95.684 226.631,89.969 L224.857,90.724 L218.012,89.287 Q215.137,93.66 211.45,95.013 L215.624,96.102 L212.937,97.963 L204.868,95.972 L208.091,94.096 L210.102,94.646 Q211.701,93.918 213.066,92.279 Q214.431,90.641 217.478,85.751 L218.444,84.188 Q221.391,79.468 223.572,77.49 Q225.752,75.513 228.982,74.617 Q225.907,73.355 222.363,72.611 Q213.338,70.716 212.06,76.808 Q211.623,78.885 212.221,80.904 z M226.826,88.84 Q227.285,85.235 227.746,83.035 Q227.982,81.915 228.172,81.21 L228.831,78.881 Q229.503,76.491 230.057,75.268 Q225.551,76.874 221.403,83.873 Q220.212,85.899 220.021,86.199 L219.309,87.262 z" fill="url(#Gradient_34)"/>
      <path d="M235.943,103.244 L235.572,104.112 Q234.121,107.522 231.15,109.336 Q228.179,111.15 225.442,110.295 Q224.875,110.118 224.395,109.819 L226.552,108.698 Q227.138,109.093 227.718,109.274 Q231.101,110.33 233.268,105.225 L238.125,93.819 Q237.467,94.05 236.691,94.381 Q235.743,94.783 235.062,94.969 L235.436,94.089 Q237.709,93.552 240.662,92.157 L238.499,97.251 Q240.362,95.514 242.282,94.631 Q244.203,93.748 245.338,94.102 Q246.973,94.613 246.101,97.406 Q245.063,100.733 242.153,102.51 Q239.243,104.286 236.325,103.375 z M236.641,101.605 Q237.38,102.471 238.538,102.833 Q240.094,103.318 241.632,101.805 Q243.169,100.291 244.073,97.396 Q244.601,95.704 243.682,95.417 Q242.671,95.101 240.804,96.213 Q238.312,97.691 237.149,100.418 z" fill="url(#Gradient_35)"/>
      <path d="M247.394,107.167 L246.949,108 Q245.208,111.271 242.091,112.82 Q238.974,114.37 236.322,113.281 Q235.772,113.056 235.32,112.716 L237.565,111.786 Q238.116,112.23 238.677,112.461 Q241.956,113.806 244.558,108.908 L250.385,97.967 Q249.71,98.14 248.908,98.402 Q247.929,98.72 247.234,98.847 L247.683,98.002 Q249.995,97.665 253.057,96.531 L250.46,101.418 Q252.467,99.85 254.457,99.136 Q256.446,98.423 257.547,98.874 Q259.131,99.525 258.021,102.232 Q256.697,105.456 253.645,106.974 Q250.592,108.492 247.764,107.331 z M248.232,105.595 Q248.893,106.522 250.015,106.982 Q251.523,107.601 253.186,106.226 Q254.85,104.852 256.001,102.046 Q256.674,100.406 255.783,100.04 Q254.803,99.639 252.847,100.584 Q250.236,101.84 248.841,104.456 z" fill="url(#Gradient_36)"/>
      <path d="M250.693,137.927 L249.166,141.47 L248.51,141.553 Q247.229,141.685 246.123,141.932 Q244.893,143.485 244.836,145.067 Q244.779,146.649 245.777,150.804 L249.478,166.135 Q253.442,164.365 255.18,161.586 Q256.918,158.808 255.874,155.932 Q255.249,154.21 253.835,152.996 L255.977,149.074 Q256.935,150.432 257.495,151.978 Q259.412,157.261 256.126,162.273 Q252.84,167.284 245.816,169.833 Q236.756,173.119 234.867,167.914 Q233.256,163.473 238.141,158.689 Q231.618,158.531 229.943,153.913 Q228.58,150.156 231.587,146.541 Q234.593,142.926 240.992,140.605 Q244.925,139.178 250.693,137.927 z M246.365,167.441 L243.757,156.652 Q242.567,156.972 241.726,157.278 Q240.787,157.618 239.525,158.231 Q236.231,162.15 237.459,165.535 Q239.105,170.075 246.365,167.441 z M243.366,155.022 L242.708,152.294 L242.288,150.586 Q241.563,147.55 241.965,146.064 Q242.367,144.579 244.57,142.229 Q240.469,143.009 236.692,144.379 Q230.587,146.594 232.348,151.446 Q233.107,153.54 235.486,154.88 Q237.866,156.22 240.528,156.051 L241.03,155.847 L241.955,155.467 L242.83,155.194 z" fill="url(#Gradient_37)"/>
      <path d="M221.331,146.176 Q223.947,145.614 224.691,149.08 Q225.29,151.871 223.798,154.898 Q222.306,157.925 220.108,158.396 Q217.456,158.965 216.713,155.499 Q216.112,152.697 217.605,149.676 Q219.098,146.655 221.331,146.176 z M220.203,147.78 Q218.865,148.067 218.283,149.749 Q217.701,151.431 218.178,153.652 Q218.956,157.281 221.213,156.797 Q222.538,156.512 223.119,154.825 Q223.7,153.137 223.226,150.927 Q222.447,147.299 220.203,147.78 z" fill="url(#Gradient_38)"/>
      <path d="M211.1,148.196 Q213.739,147.752 214.327,151.247 Q214.801,154.062 213.176,157.02 Q211.551,159.977 209.334,160.35 Q206.66,160.801 206.071,157.305 Q205.596,154.478 207.222,151.527 Q208.848,148.575 211.1,148.196 z M209.902,149.749 Q208.553,149.976 207.896,151.63 Q207.24,153.285 207.617,155.525 Q208.233,159.185 210.509,158.802 Q211.846,158.576 212.501,156.916 Q213.157,155.256 212.781,153.027 Q212.165,149.368 209.902,149.749 z" fill="url(#Gradient_39)"/>
      <path d="M201.211,157.583 Q200.537,159.348 199.339,160.628 Q198.142,161.908 197.021,162.052 Q195.51,162.244 195.312,160.687 Q195.122,159.2 196.221,157.807 Q197.32,156.413 199.316,155.607 Q196.56,151.87 195.463,152.01 Q194.672,152.111 193.975,153.603 Q193.678,153.437 193.654,153.248 Q193.584,152.694 194.545,151.588 Q195.507,150.481 196.165,150.374 Q197.337,150.164 200.817,154.876 L201.18,155.369 L201.095,150.476 L202.761,149.531 L202.767,149.866 L202.785,150.751 L202.796,151.589 L202.959,162.073 Q203.026,165.793 201.056,168.671 Q199.085,171.549 196.229,171.913 Q195.639,171.989 195.08,171.928 L196.598,170.008 Q197.296,170.122 197.898,170.046 Q201.402,169.598 201.316,164.045 z M201.19,155.728 Q199.29,155.97 198.125,156.988 Q196.96,158.006 197.121,159.269 Q197.284,160.543 198.18,160.429 Q199.006,160.323 199.861,158.985 Q200.715,157.647 201.19,155.728 z" fill="url(#Gradient_40)"/>
      <path d="M162.761,167.003 Q162.315,166.228 162.112,165.84 Q158.558,159.561 157.087,157.597 Q155.615,155.634 154.427,155.617 Q152.551,155.585 151.626,158.6 Q150.924,158.231 150.907,157.773 Q150.856,156.463 152.538,154.44 Q154.221,152.417 155.406,152.371 Q157.133,152.305 160.045,155.984 Q162.957,159.662 165.918,165.673 Q167.058,165.525 167.869,165.493 Q168.66,165.463 169.87,165.52 L169.984,164.141 L170.162,161.739 Q170.401,158.751 171.266,157.415 Q172.131,156.08 174.724,154.73 L169.803,154.607 L172.206,152.098 L181.23,152.209 L178.667,154.891 L176.391,154.728 Q173.936,156.427 173.523,161.401 L173.372,163.427 L172.233,179.261 Q181.628,177.107 181.422,171.762 Q181.339,169.619 180.381,167.99 L183.616,164.907 Q184.114,166.492 184.178,168.135 Q184.395,173.772 179.728,177.535 Q175.061,181.297 167.49,181.589 Q157.215,181.986 156.963,175.454 Q156.779,170.691 162.761,167.003 z M168.869,179.536 L169.735,167.421 Q168.061,167.215 166.688,167.268 Q165.398,167.317 163.89,167.646 Q160.27,170.452 160.416,174.238 Q160.632,179.854 168.869,179.536 z" fill="url(#Gradient_41)"/>
      <path d="M143.777,157.545 Q145.169,155.363 146.812,153.989 Q148.454,152.615 149.643,152.642 Q151.273,152.678 151.215,155.306 Q151.135,158.921 148.704,161.514 Q146.273,164.108 143.027,164.036 Q141.79,164.009 140.929,163.68 Q140.993,163.468 141.006,163.42 L141.162,162.793 Q141.32,162.142 141.334,162.036 L142.211,156.796 L142.335,156.038 Q142.514,154.911 142.523,154.531 Q142.534,154.019 142.237,154.013 Q141.238,153.991 140.142,156.203 Q139.825,156.006 139.829,155.816 Q139.839,155.399 140.889,154.161 Q142.318,152.48 143.507,152.506 Q144.375,152.525 144.35,153.691 Q144.342,154.047 144.245,154.676 L144.105,155.625 L143.927,156.668 z M142.995,162.251 Q144.063,162.881 145.169,162.906 Q146.834,162.942 148.009,160.934 Q149.183,158.925 149.25,155.917 Q149.284,154.371 148.368,154.351 Q147.31,154.327 145.776,155.911 Q143.706,158.043 143.213,160.971 z" fill="url(#Gradient_42)"/>
      <path d="M134.504,162.106 L135.395,156.891 Q135.63,155.486 135.668,154.809 Q135.744,153.468 134.83,153.416 Q133.844,153.36 132.696,154.915 Q132.53,154.679 132.54,154.501 Q132.578,153.836 133.8,152.976 Q135.023,152.116 135.866,152.164 Q137.552,152.259 137.43,154.421 Q137.385,155.216 137.082,156.986 L136.202,162.202 L138.708,162.344 L137.241,163.643 L135.97,163.571 L135.598,165.718 L133.82,166.201 L134.272,163.475 L127.455,163.089 L128.639,156.079 L128.765,155.324 Q128.929,154.32 128.953,153.905 Q128.986,153.311 128.677,153.294 Q127.668,153.236 126.568,155.414 Q126.246,155.205 126.257,155.003 Q126.281,154.587 127.325,153.396 Q128.764,151.762 129.94,151.828 Q130.854,151.88 130.783,153.139 Q130.757,153.602 130.524,154.971 L130.358,156.01 L129.374,161.816 z M128.313,164.984 L127.176,167.386 Q125.815,167.857 124.906,168.77 Q124.784,168.596 124.794,168.418 Q124.885,166.827 128.313,164.984 z" fill="url(#Gradient_43)"/>
      <path d="M121.984,151.97 L123.816,151.412 L123.75,151.741 L123.573,152.608 L123.401,153.428 L122.271,158.866 L122.141,159.487 Q122.001,160.214 121.959,160.664 Q121.888,161.422 122.267,161.458 Q123.156,161.541 124.362,159.623 Q124.614,159.873 124.598,160.039 Q124.532,160.75 123.12,161.854 Q121.709,162.959 120.963,162.889 Q119.944,162.794 120.066,161.491 Q120.097,161.159 120.208,160.608 L120.393,159.658 L120.563,158.861 L120.736,158.029 Q119.144,159.983 117.353,161.183 Q115.562,162.384 114.39,162.274 Q113.241,162.167 113.391,160.568 Q113.436,160.082 113.657,159.124 L114.71,154.766 Q115.023,153.457 115.095,152.687 Q115.153,152.072 114.821,152.041 Q114.004,151.964 112.604,154.031 Q112.337,153.827 112.354,153.638 Q112.426,152.868 113.864,151.742 Q115.301,150.616 116.13,150.694 Q117.054,150.78 116.93,152.106 Q116.839,153.077 116.43,154.771 L115.747,157.599 Q115.415,158.977 115.339,159.794 Q115.251,160.73 115.903,160.791 Q117.418,160.933 119.168,159.024 Q120.917,157.115 121.398,154.782 z" fill="url(#Gradient_44)"/>
      <path d="M102.545,158.899 Q103.317,159.61 104.603,159.775 Q106.219,159.983 107.595,158.097 Q108.97,156.211 109.35,153.25 Q109.547,151.716 108.639,151.599 Q107.601,151.466 105.896,152.878 Q103.534,154.841 102.865,157.621 z M100.339,160.103 Q100.426,159.898 100.443,159.853 L100.654,159.244 Q100.895,158.579 100.916,158.51 L101.942,154.253 Q102.2,153.183 102.679,150.474 Q103.282,147.086 103.977,145.508 Q104.671,143.93 106.063,142.802 Q109.251,140.201 112.425,140.609 Q113.958,140.806 114.84,141.974 Q115.721,143.143 115.521,144.7 Q115.113,147.874 110.835,150.466 Q111.578,151.221 111.367,152.861 Q110.909,156.424 108.224,158.753 Q105.538,161.083 102.341,160.672 Q100.984,160.498 100.339,160.103 z M103.683,154.237 Q107.493,149.785 110.076,150.117 Q110.183,150.13 110.451,150.189 Q113.543,147.78 113.82,145.621 Q114.009,144.146 113.093,143.015 Q112.177,141.884 110.632,141.686 Q108.248,141.38 106.705,143.316 Q105.53,144.808 104.37,150.847 Q103.933,153.129 103.683,154.237 z" fill="url(#Gradient_45)"/>
      <path d="M83.895,162.677 L87.792,160.36 Q88.116,162.723 87.643,164.75 Q86.469,169.777 81.392,171.84 Q77.138,173.583 68.3,171.52 Q66.8,171.169 65.679,170.844 Q62.584,169.907 62.503,169.888 L61.084,169.557 Q63.243,167.453 65.003,159.913 L65.229,158.854 L65.692,156.504 Q66.672,152.308 66.665,147.668 Q66.657,145.871 66.385,145.294 Q66.114,144.718 65.161,144.495 Q64.127,144.254 62.653,144.615 Q62.592,144.238 62.644,144.015 Q62.762,143.508 63.638,143.328 L64.7,143.084 L70.193,142.079 Q70.657,147.595 69.691,153.291 L71.483,152.576 L78.293,154.166 Q81.266,149.858 84.982,148.589 L80.833,147.406 L83.562,145.606 L91.584,147.779 L88.32,149.582 L86.321,148.987 Q84.706,149.678 83.305,151.286 Q81.904,152.893 78.748,157.714 L77.747,159.254 Q74.694,163.907 72.47,165.835 Q70.245,167.763 66.997,168.586 Q70.042,169.917 73.569,170.741 Q82.549,172.837 83.964,166.776 Q84.446,164.709 83.895,162.677 z M69.471,154.415 Q68.932,158.008 68.421,160.198 Q68.16,161.313 67.954,162.013 L67.243,164.326 Q66.518,166.7 65.936,167.911 Q70.477,166.406 74.782,159.502 Q76.018,157.504 76.215,157.208 L76.951,156.161 z" fill="url(#Gradient_46)"/>
      <path d="M60.694,139.776 L61.1,138.923 Q62.686,135.574 65.728,133.881 Q68.769,132.187 71.469,133.151 Q72.029,133.35 72.496,133.669 L70.296,134.702 Q69.726,134.284 69.154,134.08 Q65.816,132.889 63.446,137.904 L58.136,149.105 Q58.803,148.901 59.592,148.602 Q60.555,148.238 61.243,148.079 L60.834,148.944 Q58.541,149.389 55.534,150.665 L57.9,145.662 Q55.969,147.322 54.015,148.127 Q52.06,148.933 50.94,148.533 Q49.327,147.958 50.31,145.202 Q51.481,141.919 54.46,140.261 Q57.438,138.602 60.318,139.629 z M59.931,141.385 Q59.227,140.49 58.085,140.083 Q56.55,139.535 54.952,140.986 Q53.355,142.436 52.336,145.293 Q51.74,146.962 52.648,147.286 Q53.645,147.642 55.555,146.606 Q58.105,145.23 59.376,142.551 z" fill="url(#Gradient_47)"/>
      <path d="M49.398,135.433 L49.881,134.622 Q51.771,131.434 54.957,130.031 Q58.142,128.628 60.741,129.837 Q61.28,130.088 61.716,130.449 L59.43,131.274 Q58.9,130.804 58.35,130.548 Q55.137,129.052 52.312,133.825 L45.984,144.485 Q46.667,144.343 47.48,144.118 Q48.473,143.846 49.173,143.752 L48.685,144.574 Q46.36,144.804 43.248,145.796 L46.069,141.034 Q43.992,142.508 41.971,143.128 Q39.95,143.749 38.872,143.247 Q37.319,142.524 38.554,139.871 Q40.025,136.712 43.145,135.337 Q46.265,133.962 49.036,135.252 z M48.488,136.965 Q47.871,136.008 46.771,135.496 Q45.294,134.808 43.568,136.104 Q41.843,137.4 40.563,140.15 Q39.815,141.757 40.688,142.164 Q41.648,142.61 43.646,141.756 Q46.313,140.623 47.827,138.074 z" fill="url(#Gradient_48)"/>
    </g>
  </g>
</svg>
